<svg xmlns="http://www.w3.org/2000/svg" version="1.1" xmlns:xlink="http://www.w3.org/1999/xlink" width="148.1" height="140.9"><svg xmlns="http://www.w3.org/2000/svg" version="1.1" xmlns:xlink="http://www.w3.org/1999/xlink" width="148.1" height="140.9"><svg viewBox="0 0 148.1 140.9" fill="currentColor" xmlns="http://www.w3.org/2000/svg">
      <g transform="translate(-26.77 -61.73)">
        
        <path d="m72.14 201.8c-2.886-1.526-7.456-4.661-9.29-6.373-0.8235-0.7685-0.8235-0.7685-2.419-0.3549-3.765 0.9756-7.983 
        0.3921-11.33-1.567-1.588-0.9308-5.618-4.776-5.319-5.075 0.5488-0.5496 9.766-0.2485 11.27 0.3683 1.881 0.7698 1.885 0.7224 
        0.1198-1.415-0.8269-1.001-2.028-2.624-2.669-3.606-1.165-1.786-1.165-1.786-3.618-1.786-5.825 0-11.76-4.108-13.79-9.545-0.4331-1.159 
        8.355 0.8779 11.01 2.551 0.5991 0.3782 1.046 0.5752 0.9937 0.438-2.077-5.431-4.143-8.518-5.971-8.925-5.489-1.222-9.44-5.111-11.56-11.38-0.3439-1.015-0.5904-1.883-0.548-1.929 
        0.5245-0.5714 7.917 3.305 10.05 5.267 1.188 1.095 1.188 1.095 0.7906-0.1919-0.4729-1.531-1.467-5.086-2.115-7.563-0.465-1.778-0.465-1.778-2.346-2.91-5.246-3.159-7.657-7.368-8.522-14.88-0.1815-1.576-0.1815-1.576 
        0.5834-1.082 2.865 1.853 6.263 5.1 7.779 7.437 0.848 1.306 0.848 1.306 0.6925-0.0166-0.08552-0.7276-0.2328-2.811-0.3273-4.63-0.1718-3.307-0.1718-3.307-2.344-5.34-4.029-3.77-6.581-12.27-4.938-16.45 
        0.5265-1.338 5.685 5.571 7.081 9.485 0.1218 0.3413 0.266-0.2419 0.4062-1.643 0.1196-1.195 0.3846-3.216 0.5888-4.492 0.3714-2.319 0.3714-2.319-0.9443-3.894-3.829-4.583-5.214-15.11-2.363-17.96 0.7863-0.7863 
        4.43 6.762 4.71 9.757 0.222 2.378 0.3704 2.19 1.642-2.079 1.125-3.776 1.125-3.776 0.05885-5.981-2.514-5.198-2.439-9.824 0.2483-15.31 1.316-2.689 1.277-2.691 2.304 
        0.1323 1.296 3.564 1.482 4.486 1.486 7.401 0.0045 2.704 0.0045 2.704 0.828 1.191 0.4529-0.8326 1.37-2.49 2.038-3.683 1.215-2.169 1.215-2.169 0.5774-3.747-1.839-4.553-0.7843-10.31 
        2.694-14.69 1.455-1.835 1.548-1.774 2.112 1.384 0.5738 3.218 0.3591 6.763-0.5355 8.84-0.1096 0.2547-0.09558 0.463 0.03127 0.463 0.4694 0 3.202-4.15 3.659-5.556 1.559-4.801 4.629-7.855 10.12-10.07 
        2.567-1.035 2.599-1.022 1.961 0.8316-1.943 5.644-4.637 8.891-9.443 11.38-1.734 0.8974-2.323 1.39-3.707 3.102-1.736 2.147-1.898 2.528-0.7608 1.783 2.376-1.557 11.76-2.49 11.76-1.169 0 2.539-7.344 
        6.156-12.53 6.173-3.141 0.0104-3.141 0.0104-3.75 0.8992-0.7516 1.097-4.171 7.71-3.986 7.71 0.07365 0 0.4675-0.311 0.8751-0.691 2.339-2.18 6.158-3.822 10.33-4.44 
        1.416-0.2099 1.429-6e-3 0.1323 2.207-2.711 4.63-6.28 7.095-11.55 7.982-2.247 0.3776-2.247 0.3782-4.094 7.243-0.9269 3.445-0.9158 3.49 0.4039 1.632 2.474-3.484 
        10.71-8.332 10.29-6.054-0.6265 3.358-3.28 7.909-5.765 9.889-1.267 1.009-5.828 3.399-6.486 3.399-0.4359 0-1.394 6.663-1.369 9.523 0.01023 1.192 0.01023 
        1.192 1.074-1.006 2.257-4.664 8.705-10.03 8.705-7.244 0 5.701-3.489 11.85-8.246 14.53-1.922 1.084-1.813 0.7466-1.536 4.716 0.4959 7.123 0.6636 7.76 
        1.282 4.866 0.6119-2.865 3.327-7.279 6.073-9.873 1.028-0.9709 1.246-0.1938 1.219 4.332-0.03164 5.155-1.401 8.61-4.784 12.07-2.251 2.303-2.169 
        1.875-1.152 6.008 1.524 6.193 2.118 7.595 2.118 4.996 0-2.997 1.22-6.876 3.188-10.13 1.451-2.401 1.432-2.399 2.084-0.2503 2.031 
        6.687 1.479 11.71-1.849 16.83-1.243 1.912-1.289 1.672 1.366 7.243 1.579 3.314 2.334 4.4 1.801 2.589-0.7456-2.533-0.1679-7.434 
        1.381-11.71 0.9625-2.66 0.7836-2.583 1.804-0.7756 2.753 4.878 3.434 11.62 1.642 16.26-0.478 1.237-0.9257 2.487-0.9949 
        2.778-0.1176 0.4947 2.285 4.116 4.489 6.767 0.8394 1.01 0.8403 1.1-0.01804-1.872-0.5779-2.001-0.5564-6.139 
        0.04861-9.327 0.5709-3.008 0.5591-3 1.906-1.191 4 5.375 5.269 10.65 3.978 16.54-0.2641 1.205-0.2852 
        1.759-0.07669 2.013 1.162 1.418 6.684 5.376 10.12 7.256 1.481 0.8093 1.807 1.106 1.807 1.643 0 0.9558-0.7824 
        0.9434-2.646-0.042zm-12.44-8.583c-0.7868-0.5947-8.841-3.023-10.03-3.023-0.8717 0-0.382 0.747 0.8319 1.269 3.166 
        1.362 10.54 2.767 9.194 1.754zm1.885-4.28c-0.3222-3.77-1.811-9.591-2.453-9.591-0.5239 0-0.4508 1.149 0.2978 4.683 
        1.366 6.448 2.509 9.052 2.155 4.908zm-11.96-8.559c-0.5224-0.8452-8.374-5.266-9.353-5.266-1.744 0 3.912 3.668 7.779 
        5.045 1.597 0.5687 1.808 0.5983 1.574 0.2203zm2.646-5.001c0.2886-3.638-0.3614-9.26-1.071-9.26-0.4492 0-0.4911 
        3.425-0.1029 8.417 0.3645 4.688 0.8414 5.03 1.174 0.8431zm-11.06-11.18c-1.5-1.964-7.08-6.634-7.758-6.493-0.6548 
        0.1365 2.781 3.701 5.584 5.793 2.373 1.771 3.194 2.036 2.175 0.7003zm3.76-2.874c0.8224-2.694 
        1.539-9.054 1.1-9.765-0.5761-0.9322-0.7336-0.3329-1.59 6.052-0.8165 6.088-0.6409 7.418 0.4903 
        3.713zm-9.959-17.26c-2.282-4.27-5.078-7.848-5.078-6.497 0 1.093 5.369 8.966 6.115 8.966 0.1553 
        0-0.3113-1.111-1.037-2.469zm5.989-0.772c1.189-2.383 2.691-6.72 2.691-7.769 0-1.877-2.354 3.015-3.942 
        8.193-1.017 3.315-0.5329 3.151 1.251-0.4247zm-1.827-15.45c2.92-3.317 6.501-10.2 4.246-8.155-0.297 0.2688-1.475 1.985-2.618 
        3.813-3.374 5.399-3.98 7.014-1.628 4.342zm-4.478 0.5904c0-0.8445-3.142-9.042-3.79-9.888-0.7348-0.9596-0.7088 0.3381 0.05619 
        2.8 1.24 3.991 3.734 8.725 3.734 7.088zm6.445-17.06c3.23-2.571 6.598-6.644 5.494-6.644-0.6522 0-7.441 7.037-7.441 7.713 0 0.4056 
        0.303 0.2392 1.947-1.069zm-5.002-1.948c-0.5416-4.631-1.423-8.702-1.919-8.868-0.4601-0.1534-0.4103 2.568 0.09575 5.236 0.7496 3.951 
        2.198 6.837 1.823 3.632zm11.31-14.23c1.961-1.164 4.683-3.535 4.395-3.828-0.4316-0.4397-8.414 4.809-8.414 5.532 0 0.2877 2.321-0.6962 
        4.019-1.704zm-6.567-1.641c0.3571-3.697 0.2648-8.742-0.1574-8.601-0.9243 0.3081-1.133 10.25-0.215 10.25 0.117 0 
        0.2846-0.7441 0.3724-1.654zm13.13-10.96c3.291-0.8983 5.748-2.154 5.054-2.583-0.6754-0.4174-8.437 2.476-8.1 3.02 0.1766 
        0.2858 0.645 0.2186 3.047-0.4369zm-5.486-3.062c1.053-3.392 1.752-7.99 1.187-7.81-0.9556 0.3055-2.729 9.199-1.834 9.199 0.1189 0 
        0.4103-0.6251 0.6475-1.389zm10.94-8.996c2.767-2.869 3.668-4.056 3.267-4.304-0.6379-0.3943-6.079 5.317-6.079 6.38 0 0.7017 0.4585 
        0.3631 2.812-2.077zm67.74 131.7c-0.2697-0.7028 0.0975-1.118 1.767-1.998 2.907-1.533 6.309-3.939 9.413-6.659 0.8983-0.7869 
        0.8983-0.7869 0.463-3.224-1.033-5.784 0.3532-11.32 3.971-15.86 1.436-1.802 1.439-1.8 2.044 1.547 0.7493 4.149 0.4762 8.15-0.7538 
        11.05-0.5009 1.179 0.459 0.1859 2.688-2.782 3.041-4.049 2.929-3.658 1.847-6.445-2.244-5.782-1.379-13.55 1.997-17.93 1.184-1.536 
        3.504 10 2.64 13.13-0.5195 1.881 0.1711 0.9829 1.779-2.314 2.714-5.565 2.635-5.215 1.526-6.828-3.42-4.977-4.123-10.61-2.115-16.96 
        0.7744-2.452 0.6662-2.495 2.594 1.037 1.888 3.46 2.492 5.407 2.747 8.864 0.1658 2.249 0.1658 2.249 0.919-0.1227 2.293-7.22 2.302-8.42 
        0.0853-10.57-3.867-3.755-6.813-14.77-4.555-17.03 0.8935-0.8935 6.404 7.357 7.077 10.59 0.2798 1.347 0.738 2.084 0.74 1.191 
        4.1e-4 -0.1819 0.1134-1.343 0.2511-2.58 0.7428-6.672 0.6624-7.144-1.417-8.328-4.662-2.654-7.533-7.721-8.223-14.52-0.3053-3.006 
        6.546 2.551 8.722 7.074 1.3 2.702 1.336 2.571 0.7979-2.934-0.4569-4.677-0.729-5.636-1.6-5.636-1.028 0-5.392-2.587-6.885-4.08-2.24-2.241-5.165-7.996-4.834-9.509 
        0.3322-1.517 9.042 4.332 10.78 7.239 1.052 1.76 0.197-2.287-1.477-6.989-0.7456-2.094-0.7456-2.094-2.995-2.562-5.481-1.14-8.919-3.667-11.48-8.438-1.027-1.914-1.027-1.914 
        0.1323-1.729 4.324 0.6881 7.929 2.143 10.06 4.061 1.644 1.479 1.633 1.421-0.5634-2.776-2.817-5.383-2.337-4.931-5.013-4.722-4.503 0.351-8.187-0.9989-11.64-4.266-2.449-2.316-2.49-2.271 
        2.153-2.311 4.055-0.0353 6.41 0.4717 8 1.723 1.316 1.035 0.6769-0.1679-1.389-2.614-0.8784-1.04-1.776-1.701-3.588-2.641-4.183-2.17-6.824-5.335-8.772-10.51-0.992-2.636-1.049-2.603 
        2.254-1.275 5.028 2.021 8.066 5.207 9.654 10.13 0.3891 1.206 3.215 5.475 3.461 5.229 0.0389-0.0389-0.1136-0.7254-0.3389-1.526-0.5524-1.962-0.5285-6.01 0.0485-8.202 
        0.6992-2.656 0.7077-2.659 2.074-0.9185 3.485 4.441 4.375 9.091 2.728 14.26-0.6877 2.16-0.3338 3.166 3.206 9.108 0.1185 0.199 0.1699-0.5416 0.1141-1.646-0.323-6.396 2.16-11.75 3.854-8.307 2.631 5.342 
        2.677 10.78 0.1324 15.64-1.071 2.042-1.122 1.343 0.4968 6.716 0.9514 3.157 1.293 3.657 1.293 1.894 0-3.15 4.002-11.9 4.795-10.49 2.533 4.526 
        1.273 13.87-2.393 17.75-1.339 1.415-1.339 1.415-0.9505 4.17 0.2134 1.515 0.4901 3.589 0.6149 4.607 0.1604 1.31 0.2858 1.697 0.4284 1.323 
        0.1109-0.291 0.4497-1.173 0.753-1.959 1.346-3.492 6.007-8.6 6.364-6.975 1.266 5.768-1.865 14.26-6.259 16.98-0.869 0.537-0.869 0.537-1.186 
        5.22-0.3644 5.387-0.3736 5.34 0.6879 3.485 1.204-2.105 6.813-7.354 7.857-7.354 0.318 0-0.0163 3.616-0.5278 5.709-1.109 
        4.536-3.669 7.977-7.776 10.45-1.958 1.179-1.958 1.179-3.084 5.71-0.6192 2.492-1.256 4.775-1.415 5.073-0.5064 0.9463-0.3186 0.9284 
        0.7927-0.0756 2.191-1.979 8.503-5.434 9.929-5.434 0.2716 0-0.1802 1.904-0.8334 3.511-2.036 5.012-5.969 8.576-10.77 9.761-1.847 0.4561-7.94 
        9.217-6.41 9.217 0.0637 0 0.6989-0.3588 1.412-0.7973 2.129-1.31 5.465-2.244 9.74-2.727 1.338-0.151 1.323-0.0615-0.419 2.598-3.301 
        5.038-7.188 7.296-12.66 7.356-2.223 0.0243-2.223 0.0243-3.048 1.229-0.4534 0.6626-1.634 2.245-2.623 3.516-2.157 2.772-2.147 
        2.724-0.4094 1.984 1.4-0.596 10.66-0.9329 11.19-0.4069 0.3369 0.3372-2.6 3.399-4.36 4.546-3.934 2.563-7.782 3.25-12.02 
        2.146-1.534-0.3996-1.534-0.3996-3.487 1.171-5.865 4.718-10.33 7.189-10.8 5.975zm18.03-9.019c2.822-0.5815 6.808-1.887 
        7.198-2.358 0.5911-0.7123-0.3347-0.7203-3.071-0.0265-7.227 1.832-10.43 3.683-4.127 2.384zm-4.415-2.953c0.4275-1.115 2.038-7.96 
        2.242-9.525 0.2389-1.84-0.3878-1.921-1.024-0.1323-1.503 4.226-2.663 13.43-1.218 9.657zm14.87-10.92c3.76-1.614 
        7.421-4.224 5.924-4.224-1.058 0-9.44 4.762-9.44 5.363 0 0.2974 0.688 0.0745 3.516-1.139zm-4.869-6.948c0.2908-5.779 
        0.2774-6.139-0.2269-6.139-0.5726 0-0.8287 1.8-0.8847 6.218-0.0973 7.672 0.7247 7.614 1.112-0.0783zm11.64-8.568c1.771-1.251 
        6.384-5.553 6.384-5.953 0-0.9606-2.885 1.08-6.567 4.646-2.865 2.774-2.777 3.399 0.1838 1.307zm-4.603-2.532c-0.404-4.726-1.296-9.856-1.713-9.856-0.814 
        0-0.2319 7.073 0.8548 10.38 0.7575 2.309 1.084 2.108 0.8582-0.5292zm10.42-17.4c1.856-2.462 3.894-6.3 3.536-6.658-0.3087-0.3087-1.261 
        0.8526-3.31 4.035-3.627 5.634-3.774 7.331-0.2264 2.623zm-6.714-1.766c-1.444-4.256-2.625-6.966-3.037-6.966-0.8841 0 1.542 7.213 3.47 
        10.32 0.9961 1.604 0.8409 0.4034-0.4334-3.353zm1.103-16.03c-1.467-2.59-4.032-6.447-4.466-6.715-1.528-0.9444 1.826 5.423 4.323 8.208 
        1.845 2.058 1.89 1.592 0.1426-1.493zm6.447-0.1329c1.618-3.266 2.856-7.738 2.144-7.738-0.4673 0-3.543 7.679-3.869 9.657-0.2278 1.386 
        0.4754 0.6031 1.725-1.92zm-6.358-13.53c0-0.7817-7.206-7.989-7.596-7.598-0.4858 0.4858 2.752 4.265 5.612 6.551 1.604 1.282 1.984 1.483 
        1.984 1.047zm4.082-3.719c1.055-3.338 1.55-8.212 0.8347-8.212-0.4129 0-0.6683 0.9905-1.491 5.781-0.8796 5.123-0.5639 6.293 0.6561 
        2.431zm-9.638-13.01c-1.733-1.511-6.554-4.533-6.895-4.322-0.6883 0.4254 3.262 3.554 6.141 4.864 2.084 0.9483 2.292 
        0.799 0.7542-0.5418zm4.507-0.8265c5e-3 -0.1819 0.117-1.164 0.2494-2.183 0.4557-3.506-0.4987-9.554-1.214-7.691-0.2184 
        0.5692 0.0459 9.084 0.3024 9.742 0.2082 0.5335 0.6491 0.6216 0.6619 0.1323zm-11.59-12.52c-2.16-1.288-7.185-2.677-7.398-2.045-0.136 
        0.4041 0.527 0.7474 3.329 1.724 3.787 1.319 6.04 1.498 4.069 0.3219zm3.829-3.88c-0.1716-2.71-1.171-6.572-1.75-6.762-0.4848-0.1593-0.2474 
        2.601 0.4848 5.638 1.03 4.273 1.491 4.682 1.265 1.124zm-8.654-5.728c0-0.7947-5.337-6.641-6.063-6.641-0.6742 0-0.1486 0.8549 2.046 
        3.328 2.645 2.981 4.017 4.112 4.017 3.313zm-46.83 123.4c-42.97-3.823-64.46-66.65-36.97-108.1 27.64-41.65 80.35-24.69 89.74 28.87 
        7.203 41.1-20.12 82.11-52.76 79.21zm8.334-10.51c28.54-6.206 44.36-47.09 31.17-80.59-17.09-43.42-63.77-39.18-76.53 6.945-10.61 38.34 
        15.18 80.21 45.36 73.65zm-16.27-18.51c0-0.8899-1.128-1.373-1.949-0.8352-0.7474 0.4897-2.145-0.6429-1.54-1.248 0.7077-0.7077 
        0.1843-2.06-0.7973-2.06-0.3679 0-0.4762-0.2107-0.4762-0.926 0-0.746 0.1017-0.926 0.5231-0.926 0.8809 0 1.47-1.164 
        0.959-1.894-0.6446-0.9203 0.3176-1.884 1.453-1.455 0.9375 0.3539 1.652 0.0148 1.78-0.845 0.1259-0.8461 1.826-0.8283 
        1.948 0.0204 0.1235 0.86 1.194 1.329 1.932 0.8453 0.7705-0.5048 2.039 0.6462 1.469 1.333-0.9815 1.183 0.4889 2.26 3.084 
        2.26 1.427 0 1.427 0 1.433-6.681 3e-3 -3.674 0.0668-7.217 0.1412-7.871 0.1797-1.583-0.6504-2.863-2.235-3.449-0.6189-0.2286-1.065-0.4756-0.9921-0.5489 
        0.7786-0.7786-1.391-3.384-2.998-3.599-0.9732-0.1305-1.088-0.2222-1.088-0.8691 0-2.14-2.971-3.521-5.109-2.375-0.9997 0.5358-0.9997 
        0.5358-1.658-0.2469-1.282-1.524-3.311-1.634-4.775-0.2581-0.6888 0.6471-0.7819 0.6059-2.875-1.273-1.531-1.375-1.531-1.375-0.304-4.498 
        3.718-9.463 4.834-11.86 5.494-11.79 0.3455 0.0345 1.283 0.1362 2.083 0.226 1.533 0.1721 1.605 0.1516 6.085-1.738 4.725-1.993 8.79-1.778 
        4.602 0.2433-3.212 1.55-4.508 3.08-7.002 8.261-2.183 4.536 4.26 5.392 8.576 1.14 1.455-1.434 1.82-1.652 3.28-1.962 1.98-0.4203 
        1.555-0.6499 7.08 3.82 2.183 1.766 5.576 4.492 7.541 6.057 4.81 3.833 5.177 4.368 4.074 5.941-1.208 
        1.725-1.925 1.45-7.198-2.763-4.723-3.774-5.608-4.187-5.608-2.621 0 0.048 1.578 1.318 3.506 2.823 5.014 3.912 5.596 4.515 5.39 
        5.581-0.4498 2.328-2.282 2.375-5.101 0.1307-5.824-4.638-5.989-4.752-6.549-4.537-0.9874 0.3789-0.6512 0.7258 5.069 5.231 2.15 
        1.693 2.393 2.361 1.269 3.485-1.278 1.278-2.156 0.9449-6.839-2.597-2.05-1.55-2.83-1.763-2.83-0.7721 0 0.321 0.8824 1.14 2.502 
        2.323 3.847 2.81 2.848 4.914-1.624 3.423-0.5775-0.1925-0.5775-0.1925-0.6615 6.011-0.0997 7.366 0.0663 6.969-2.98 7.129-2.775 
        0.1456-3.921 1.096-2.743 2.274 0.6208 0.6208-0.767 1.706-1.537 1.202-0.7691-0.5039-1.952 0.0885-1.952 0.9775 0 0.4214-0.18 
        0.5231-0.926 0.5231-0.7944 0-0.926-0.088-0.926-0.619zm2.666-3.329c1.042-1.042 1.055-2.342 0.03681-3.482-1.533-1.716-4.29-0.58-4.29 1.767 
        0 1.319 1.182 2.489 2.514 2.489 0.7157 0 1.168-0.2008 1.74-0.7734zm14.8 2.445c3e-3 -0.3329 2.503-7.845 2.735-8.22 
        0.3045-0.4921 0.9692-0.3999 0.9534 0.1323-0.0739 2.488-3.712 10.47-3.688 8.088zm-3.121-2.629c-1.572-1.661-1.592-1.505 
        0.4421-3.392 1.909-1.77 2.691-1.046 0.8311 0.7705-1.067 1.042-1.067 1.042 0.0282 2.158 0.709 0.7225 1.039 1.263 0.9356 
        1.533-0.2721 0.7091-0.7856 0.4636-2.237-1.07zm7.886 1.095c-0.2687-0.3237-0.1372-0.5597 0.7614-1.366 1.335-1.199 1.336-1.23 
        0.015-2.551-0.9672-0.9672-1.031-1.111-0.6612-1.481s0.551-0.2704 1.865 1.027c1.777 1.755 1.775 1.686 0.0576 3.382-1.549 1.53-1.577 
        1.543-2.038 0.9887zm-18.21-14.96c-0.861-0.8022-0.7212-1.741 0.494-3.316 1.414-1.833 2.59-2.24 3.516-1.217 1.763 1.949-2.099 6.314-4.01 
        4.533zm-4.644-2.126c-1.318-1.037-0.9488-2.168 1.733-5.308 1.712-2.005 2.789-2.187 3.802-0.6425 1.402 2.139-3.576 
        7.491-5.534 5.95zm-4.81-3.011c-1.412-1.412 2.294-7.569 4.541-7.544 2.657 0.0293 2.712 1.894 0.1601 5.358-2.262 3.07-3.324 
        3.564-4.701 2.187zm-3.291-3.395c-1.449-0.7333-1.284-2.407 0.4182-4.243 1.724-1.86 4.247-0.3944 3.292 1.912-0.8414 2.031-2.385 
        3.001-3.71 2.331zm37.65-6.752c-9.634-7.987-15.23-12.22-16.15-12.22-2.589 0-4.333 0.7477-6.204 2.659-2.012 2.056-3.27 2.622-4.921 
        2.214-2.86-0.7065 1.703-7.563 6.293-9.457 1.237-0.5104 2.963-1.233 3.836-1.606 2.264-0.9662 3.42-0.8865 7.975 0.5496 3.437 1.084 
        4.235 1.242 6.34 1.257 2.408 0.0171 2.408 0.0171 3.018 1.605 0.9307 2.422 4.442 10.97 5.029 12.24 0.5199 1.127 0.5199 1.127-1.126 
        2.338-2.557 1.882-2.355 1.861-4.089 0.423zm-47.18-0.4937c-0.5093-0.2195-1.792-0.7576-2.849-1.196-2.739-1.135-2.76-1.227-1.152-5.074 
        0.7382-1.766 1.92-4.639 2.627-6.385 4.469-11.04 3.782-10.26 7.659-8.699 4.541 1.833 4.45 1.314 1.491 8.475-1.253 3.033-2.925 7.122-3.716 
        9.087-1.777 4.418-2.038 4.662-4.06 3.791zm55.52 4.6e-4c-0.4488-0.5088-1.832-3.699-5.613-12.94-2.935-7.178-3.044-6.498 1.329-8.303 
        4.128-1.704 3.261-2.634 7.754 8.328 1.193 2.91 2.592 6.301 3.109 7.534 1.227 2.927 1.116 3.148-2.304 4.576-3.167 1.323-3.729 
        1.429-4.275 0.8098z"></path>
      
      </g>
    </svg></svg><style>@media (prefers-color-scheme: light) { :root { filter: none; } }
@media (prefers-color-scheme: dark) { :root { filter: none; } }
</style></svg>